<?xml version="1.0" encoding="UTF-8"?>
<svg xmlns="http://www.w3.org/2000/svg" xmlns:xlink="http://www.w3.org/1999/xlink" width="2251" height="2326" viewBox="0 0 2251 2326">
<path fill-rule="nonzero" fill="rgb(0%, 0%, 0%)" fill-opacity="1" d="M 1275.320312 1.25 C 1234.039062 2.070312 1114.539062 7.539062 1094.488281 9.179688 C 941.1875 22.570312 853.527344 35.421875 737.957031 62.210938 C 375.128906 146.390625 128.65625 321.601562 57.507812 546.011719 C 28.8125 636.480469 28.417969 730.511719 56.722656 808.679688 C 94.066406 911.449219 164.035156 993.730469 288.648438 1080.648438 C 440.777344 1187.25 620.8125 1264.601562 925.460938 1354.800781 C 1138.910156 1417.941406 1241.121094 1457.847656 1316.199219 1507.046875 C 1353.148438 1531.375 1369.660156 1546.132812 1388.921875 1572.921875 C 1409.75 1601.621094 1416.441406 1623.761719 1416.039062 1663.941406 C 1416.039062 1694.554688 1414.46875 1700.839844 1403.859375 1724.074219 C 1388.53125 1756.601562 1366.910156 1779.285156 1324.851562 1806.621094 C 1270.988281 1841.878906 1192.378906 1865.660156 1080.730469 1880.691406 C 1039.460938 1886.160156 1024.128906 1886.707031 899.910156 1886.707031 C 761.933594 1886.433594 741.886719 1885.339844 628.675781 1872.765625 C 473.796875 1855.546875 318.523438 1825.207031 178.972656 1784.480469 C 157.355469 1778.191406 138.878906 1774.09375 137.304688 1775.1875 C 134.160156 1777.917969 -1.851562 2205.140625 0.117188 2206.234375 C 5.617188 2209.785156 56.722656 2225.914062 90.921875 2234.933594 C 231.253906 2272.105469 434.878906 2302.71875 638.503906 2317.207031 C 770.582031 2326.773438 988.355469 2328.6875 1106.289062 2321.304688 C 1407.398438 2302.71875 1651.121094 2248.324219 1845.308594 2156.484375 C 1906.230469 2127.785156 1940.828125 2107.832031 1992.71875 2071.480469 C 2130.691406 1974.992188 2213.640625 1857.460938 2242.71875 1717.238281 C 2252.550781 1671.046875 2252.550781 1576.199219 2242.71875 1531.375 C 2221.109375 1432.425781 2168.039062 1343.046875 2084.699219 1265.96875 C 2004.511719 1191.890625 1876.75 1115.359375 1732.089844 1054.949219 C 1625.570312 1010.679688 1573.679688 993.179688 1346.070312 925.941406 C 1188.050781 879.199219 1070.121094 837.648438 1000.148438 804.308594 C 946.296875 778.339844 899.519531 738.980469 883.402344 705.910156 C 839.765625 615.710938 899.519531 526.058594 1035.53125 478.5 C 1118.078125 449.519531 1218.710938 436.128906 1353.941406 436.398438 C 1537.511719 436.679688 1729.339844 463.730469 1892.480469 511.839844 C 1931 523.320312 1943.578125 525.78125 1959.699219 524.410156 C 1962.449219 524.410156 1995.46875 436.949219 2038.320312 318.050781 L 2112.21875 111.679688 L 2102.390625 105.390625 C 2069.371094 82.980469 1838.621094 35.96875 1686.101562 20.109375 C 1556.769531 6.71875 1381.449219 -1.199219 1275.320312 1.25 Z M 1275.320312 1.25 "/>
</svg>
